<svg width="37" height="39" viewBox="0 0 37 39" fill="none" xmlns="http://www.w3.org/2000/svg">
<rect width="36.8187" height="38.9845" rx="10" fill="black"/>
<path d="M29.0673 19.5C29.0673 21.4891 28.3017 23.3968 26.9389 24.8033C25.5761 26.2098 23.7278 27 21.8005 27C19.8732 27 18.0248 26.2098 16.662 24.8033C15.2992 23.3968 14.5336 21.4891 14.5336 19.5L17.2587 19.5C17.2587 20.7432 17.7372 21.9355 18.589 22.8145C19.4407 23.6936 20.5959 24.1875 21.8005 24.1875C23.005 24.1875 24.1602 23.6936 25.012 22.8145C25.8637 21.9355 26.3422 20.7432 26.3422 19.5H29.0673Z" fill="#D9D9D9"/>
<path d="M8.79237 19.687C8.78289 18.6971 8.96243 17.7149 9.32073 16.7966C9.67903 15.8783 10.2091 15.0418 10.8806 14.3349C11.5521 13.628 12.3519 13.0646 13.2345 12.6767C14.117 12.2889 15.0648 12.0842 16.024 12.0744C16.9831 12.0647 17.9347 12.25 18.8245 12.6198C19.7143 12.9895 20.5247 13.5366 21.2096 14.2297C21.8946 14.9227 22.4405 15.7482 22.8163 16.6591C23.1921 17.5699 23.3904 18.5482 23.3999 19.5381L20.6609 19.566C20.655 18.9473 20.5311 18.3359 20.2962 17.7666C20.0613 17.1974 19.7201 16.6814 19.292 16.2483C18.864 15.8151 18.3574 15.4732 17.8013 15.2421C17.2452 15.011 16.6505 14.8952 16.051 14.9013C15.4516 14.9074 14.8592 15.0353 14.3076 15.2777C13.756 15.5201 13.2561 15.8723 12.8364 16.3141C12.4167 16.7559 12.0855 17.2787 11.8615 17.8526C11.6376 18.4265 11.5254 19.0404 11.5313 19.6591L8.79237 19.687Z" fill="#CBCBCB"/>
</svg>
